<?xml version="1.0" standalone="no"?>
<!DOCTYPE svg PUBLIC "-//W3C//DTD SVG 20010904//EN"
 "http://www.w3.org/TR/2001/REC-SVG-20010904/DTD/svg10.dtd">
<svg version="1.0" xmlns="http://www.w3.org/2000/svg"
 width="48.000000pt" height="48.000000pt" viewBox="0 0 48.000000 48.000000"
 preserveAspectRatio="xMidYMid meet">

<g transform="translate(0.000000,48.000000) scale(0.100000,-0.100000)"
fill="#000000" stroke="none">
<path d="M95 387 l-35 -35 0 -103 0 -104 20 25 c15 19 20 41 20 93 0 59 3 71
25 92 22 23 32 25 115 25 84 0 93 -2 116 -25 24 -24 25 -29 21 -118 -3 -50 -8
-110 -12 -132 l-6 -40 30 33 c31 32 31 33 31 142 0 107 -1 110 -29 142 l-29
33 -116 3 -116 4 -35 -35z"/>
<path d="M140 340 c-15 -15 -20 -33 -20 -75 l0 -55 25 12 c14 6 25 19 25 28 0
25 43 60 73 60 36 0 67 -33 67 -70 0 -34 27 -83 41 -74 5 3 9 39 9 80 0 102
-12 114 -120 114 -67 0 -83 -3 -100 -20z m180 -20 c0 -5 -4 -10 -10 -10 -5 0
-10 5 -10 10 0 6 5 10 10 10 6 0 10 -4 10 -10z"/>
<path d="M205 268 c-15 -22 -14 -23 18 -29 18 -3 38 -9 45 -13 20 -12 26 23 7
44 -24 26 -50 25 -70 -2z"/>
</g>
</svg>
