<?xml version="1.0" standalone="no"?>
<!DOCTYPE svg PUBLIC "-//W3C//DTD SVG 20010904//EN"
 "http://www.w3.org/TR/2001/REC-SVG-20010904/DTD/svg10.dtd">
<svg version="1.0" xmlns="http://www.w3.org/2000/svg"
 width="48.000000pt" height="48.000000pt" viewBox="0 0 48.000000 48.000000"
 preserveAspectRatio="xMidYMid meet">

<g transform="translate(0.000000,48.000000) scale(0.100000,-0.100000)"
fill="#000000" stroke="none">
<path d="M133 381 c-80 -10 -87 -22 -87 -142 0 -92 2 -103 21 -119 42 -34 288
-37 339 -4 43 27 43 221 0 249 -25 16 -196 27 -273 16z m187 -141 c0 -3 -27
-20 -60 -38 l-60 -33 0 71 0 71 60 -33 c33 -18 60 -35 60 -38z"/>
</g>
</svg>
