<?xml version="1.0" standalone="no"?>
<!DOCTYPE svg PUBLIC "-//W3C//DTD SVG 20010904//EN"
 "http://www.w3.org/TR/2001/REC-SVG-20010904/DTD/svg10.dtd">
<svg version="1.0" xmlns="http://www.w3.org/2000/svg"
 width="48.000000pt" height="48.000000pt" viewBox="0 0 48.000000 48.000000"
 preserveAspectRatio="xMidYMid meet">

<g transform="translate(0.000000,48.000000) scale(0.100000,-0.100000)"
fill="#000000" stroke="none">
<path d="M84 396 l-34 -34 0 -122 0 -122 34 -34 34 -34 122 0 122 0 34 34 34
34 0 122 0 122 -34 34 -34 34 -122 0 -122 0 -34 -34z m284 -44 c2 -7 -3 -12
-12 -12 -9 0 -16 7 -16 16 0 17 22 14 28 -4z m-92 -27 c49 -20 70 -71 49 -120
-32 -78 -138 -78 -170 0 -14 31 -14 39 -1 70 10 23 27 41 48 50 41 18 33 18
74 0z"/>
<path d="M196 284 c-22 -21 -20 -67 2 -87 40 -36 102 -9 102 45 0 49 -69 78
-104 42z"/>
</g>
</svg>
