<?xml version="1.0" standalone="no"?>
<!DOCTYPE svg PUBLIC "-//W3C//DTD SVG 20010904//EN"
 "http://www.w3.org/TR/2001/REC-SVG-20010904/DTD/svg10.dtd">
<svg version="1.0" xmlns="http://www.w3.org/2000/svg"
 width="48.000000pt" height="48.000000pt" viewBox="0 0 48.000000 48.000000"
 preserveAspectRatio="xMidYMid meet">

<g transform="translate(0.000000,48.000000) scale(0.100000,-0.100000)"
fill="#000000" stroke="none">
<path d="M76 404 c-23 -23 -23 -305 0 -328 23 -23 305 -23 328 0 23 23 23 305
0 328 -23 23 -305 23 -328 0z m229 -55 c4 -11 18 -25 31 -31 29 -14 35 -61 7
-51 -10 3 -24 10 -30 16 -10 7 -13 -5 -13 -55 0 -71 -18 -102 -65 -114 -51
-13 -104 50 -85 100 11 29 54 61 70 51 15 -9 12 -35 -5 -35 -8 0 -19 -9 -25
-20 -22 -40 26 -80 58 -48 8 8 12 47 12 110 0 90 2 98 19 98 11 0 23 -9 26
-21z"/>
</g>
</svg>
